<svg width="20" height="20" viewBox="0 0 20 20" fill="#fefee9" xmlns="http://www.w3.org/2000/svg">
<g id="phone-container">
<path id="Vector" stroke-width="1.2" d="M18.0232 12.2587C17.6448 11.7917 17.1047 11.4846 16.5103 11.3982C15.8297 11.3082 15.161 11.1437 14.5162 10.9078C14.0799 10.7396 13.6043 10.7013 13.1468 10.7975C12.6893 10.8936 12.2693 11.1202 11.9375 11.4499L11.4303 11.9575C10.0535 11.0672 8.88145 9.89406 7.99206 8.51581L8.5078 7.99955C8.82741 7.67852 9.04819 7.27236 9.14388 6.82937C9.23881 6.37844 9.20302 5.90975 9.04073 5.4785C8.80124 4.83067 8.63404 4.15832 8.54219 3.4737C8.45951 2.89822 8.17243 2.37182 7.73356 1.99098C7.29469 1.61014 6.73342 1.40036 6.1526 1.40007H3.82318C3.48832 1.39795 3.15697 1.4684 2.85187 1.60657C2.5447 1.73912 2.26926 1.93564 2.04388 2.18306C1.81405 2.42933 1.64094 2.72303 1.53674 3.04349C1.42435 3.36644 1.38043 3.7093 1.4078 4.05019C1.68254 6.58333 2.54499 9.01712 3.92633 11.1573C5.19238 13.1358 6.87295 14.8151 8.85163 16.079C10.9922 17.463 13.4267 18.3263 15.9602 18.6H16.1751C16.4383 18.5998 16.6997 18.5562 16.9487 18.471C17.2689 18.3667 17.5623 18.1934 17.8083 17.9633C18.0582 17.7401 18.2549 17.4638 18.3842 17.1545C18.5215 16.8516 18.5947 16.5235 18.5991 16.1908V13.8763C18.6146 13.2842 18.4093 12.7075 18.0232 12.2587ZM16.88 13.8763V16.208C16.8808 16.3059 16.8603 16.4029 16.8198 16.492C16.7814 16.5796 16.7259 16.6586 16.6565 16.7243C16.5818 16.7861 16.4976 16.8355 16.4072 16.8706C16.3162 16.8868 16.2231 16.8868 16.1321 16.8706C13.8725 16.6177 11.7016 15.8462 9.78855 14.6162C8.01634 13.486 6.51156 11.9826 5.37899 10.2109C4.14906 8.30273 3.37816 6.13498 3.12693 3.8781C3.11002 3.78421 3.11002 3.68805 3.12693 3.59416C3.15856 3.50208 3.20824 3.41725 3.27306 3.34464C3.3387 3.27514 3.41762 3.21954 3.50514 3.18116C3.59417 3.14061 3.69099 3.12005 3.7888 3.12093H6.16979C6.33768 3.11994 6.49998 3.18125 6.62536 3.29301C6.68984 3.34456 6.74353 3.40833 6.78335 3.48068C6.82317 3.55302 6.84835 3.63252 6.85744 3.71462C6.96002 4.52165 7.15025 5.31507 7.42475 6.0808C7.46799 6.20918 7.46799 6.34821 7.42475 6.4766C7.39971 6.60409 7.33679 6.72105 7.24424 6.81216L6.30732 7.80165C6.17478 7.93504 6.08957 8.10823 6.06473 8.29471C6.03989 8.48119 6.0768 8.67068 6.16979 8.83417C7.35566 10.9149 9.08116 12.6362 11.1639 13.816C11.3272 13.9091 11.5165 13.9461 11.7028 13.9212C11.8891 13.8963 12.0621 13.811 12.1953 13.6784L13.1752 12.6975C13.2712 12.6052 13.3898 12.5399 13.5191 12.5082C13.6481 12.4699 13.7854 12.4699 13.9145 12.5082C14.6779 12.7918 15.4708 12.988 16.2783 13.0933C16.4484 13.1188 16.6038 13.2042 16.7166 13.3342C16.7802 13.4081 16.8276 13.4945 16.8558 13.5879C16.8839 13.6813 16.8921 13.7795 16.88 13.8763Z" fill="#000"/>
</g>
</svg>
